HIERARCHY
ROOT Bip001_Pelvis
{
  OFFSET 7.937 94.8971 -8.5489
  CHANNELS 6 Xposition Yposition Zposition Zrotation Xrotation Yrotation
  JOINT Bip001_Spine
  {
    OFFSET 1.44608e-005 10.4157 -0.0118244
    CHANNELS 3 Zrotation Xrotation Yrotation
    JOINT Bip001_L_Thigh
    {
      OFFSET 11.2582 -10.4157 0.0118432
      CHANNELS 3 Zrotation Xrotation Yrotation
      JOINT Bip001_L_Calf
      {
        OFFSET -0.720717 -44.8687 0.366937
        CHANNELS 3 Zrotation Xrotation Yrotation
        JOINT Bip001_L_Foot
        {
          OFFSET -0.664439 -41.3745 -3.62995
          CHANNELS 3 Zrotation Xrotation Yrotation
          JOINT Bip001_L_Toe0
          {
            OFFSET 0.0541047 -10.4146 13.4033
            CHANNELS 3 Zrotation Xrotation Yrotation
            End Site
            {
              OFFSET -1.04503e-005 0 7.70137
            }
          }
        }
      }
    }
    JOINT Bip001_R_Thigh
    {
      OFFSET -11.2582 -10.4156 0.0118122
      CHANNELS 3 Zrotation Xrotation Yrotation
      JOINT Bip001_R_Calf
      {
        OFFSET 0.72059 -44.8687 0.36676
        CHANNELS 3 Zrotation Xrotation Yrotation
        JOINT Bip001_R_Foot
        {
          OFFSET 0.664321 -41.3745 -3.62979
          CHANNELS 3 Zrotation Xrotation Yrotation
          JOINT Bip001_R_Toe0
          {
            OFFSET -0.05417 -10.4146 13.4033
            CHANNELS 3 Zrotation Xrotation Yrotation
            End Site
            {
              OFFSET -1.04873e-005 0 7.70137
            }
          }
        }
      }
    }
    JOINT Bip001_Spine1
    {
      OFFSET 1.90638e-005 14.8539 1.10727
      CHANNELS 3 Zrotation Xrotation Yrotation
      JOINT Bip001_Spine2
      {
        OFFSET 2.28934e-005 14.7848 -1.7233
        CHANNELS 3 Zrotation Xrotation Yrotation
        JOINT Bip001_Neck
        {
          OFFSET 2.24514e-005 15.6905 -0.498826
          CHANNELS 3 Zrotation Xrotation Yrotation
          JOINT Bip001_L_Clavicle
          {
            OFFSET 6.17691 -0.000591152 0.00852867
            CHANNELS 3 Zrotation Xrotation Yrotation
            JOINT Bip001_L_UpperArm
            {
              OFFSET 11.773 -0.0611878 0.00197697
              CHANNELS 3 Zrotation Xrotation Yrotation
              JOINT Bip001_L_Forearm
              {
                OFFSET 26.4515 0.0817568 -2.19579
                CHANNELS 3 Zrotation Xrotation Yrotation
                JOINT Bip001_L_Hand
                {
                  OFFSET 32.8677 0.156744 1.67112
                  CHANNELS 3 Zrotation Xrotation Yrotation
                  JOINT Bip001_L_Finger0
                  {
                    OFFSET 6.16268 -2.25226 6.01674
                    CHANNELS 3 Zrotation Xrotation Yrotation
                    End Site
                    {
                      OFFSET 4.30499 -1.46662 0.618148
                    }
                  }
                  JOINT Bip001_L_Finger1
                  {
                    OFFSET 11.2957 -0.718374 -0.201963
                    CHANNELS 3 Zrotation Xrotation Yrotation
                    End Site
                    {
                      OFFSET 6.31952 -0.405163 -0.0802303
                    }
                  }
                }
              }
            }
          }
          JOINT Bip001_R_Clavicle
          {
            OFFSET -6.17691 -0.000574027 0.00851165
            CHANNELS 3 Zrotation Xrotation Yrotation
            JOINT Bip001_R_UpperArm
            {
              OFFSET -11.773 -0.0611516 0.00194365
              CHANNELS 3 Zrotation Xrotation Yrotation
              JOINT Bip001_R_Forearm
              {
                OFFSET -26.4514 0.0822334 -2.19736
                CHANNELS 3 Zrotation Xrotation Yrotation
                JOINT Bip001_R_Hand
                {
                  OFFSET -32.8677 0.156817 1.67144
                  CHANNELS 3 Zrotation Xrotation Yrotation
                  JOINT Bip001_R_Finger0
                  {
                    OFFSET -6.1627 -2.25224 6.0167
                    CHANNELS 3 Zrotation Xrotation Yrotation
                    End Site
                    {
                      OFFSET -4.30499 -1.46662 0.618134
                    }
                  }
                  JOINT Bip001_R_Finger1
                  {
                    OFFSET -11.2958 -0.718344 -0.201994
                    CHANNELS 3 Zrotation Xrotation Yrotation
                    End Site
                    {
                      OFFSET -6.31952 -0.405146 -0.0802475
                    }
                  }
                }
              }
            }
          }
          JOINT Bip001_Head
          {
            OFFSET 1.11782e-005 11.4912 2.09908
            CHANNELS 3 Zrotation Xrotation Yrotation
            End Site
            {
              OFFSET 2.95144e-005 21.2823 -2.83069e-005
            }
          }
        }
      }
    }
  }
}
MOTION
Frames:	14
Frame Time:	0.04
12.4265 93.9716 -10.4049 -3.47944 5.28129 24.325 -1.98729 0.100314 3.13961 -0.345815 -23.5982 0.187147 4.41617 24.7676 -14.8852 0.717095 -7.24768 -4.68255 0.855885 -10.1135 -0.173436 -8.76336 -7.43464 -9.57582 1.94789 17.91 -6.51835 1.63037 -11.312 -16.388 2.92762 -11.646 -1.96018 -3.37287 0.105176 6.34749 -3.37294 0.105248 6.34756 -3.54261 -6.59775 -4.0892 -24.6821 11.1329 -9.73832 -51.4763 33.0972 16.2343 14.9704 2.70621 -29.5215 -3.50676 -0.171034 -1.50782 -1.59028e-015 -3.18055e-015 -0 -2.38542e-015 3.18056e-015 -0 4.19623 9.30715 24.8113 3.88242 -10.4189 48.989 -55.3059 25.0473 39.9931 -27.8719 12.1876 -15.7506 1.19271e-015 0 3.23025e-015 1.19271e-015 1.59028e-015 1.54058e-015 -1.43339 -1.46109 -4.50224 
12.4455 94.4868 -10.338 -3.45123 5.88102 26.1846 -2.0041 0.0697949 3.23125 -0.507056 -22.7603 0.56099 3.28946 21.7457 -14.6666 1.10253 -5.2864 -6.22208 0.686569 -10.2352 -0.691672 -8.56093 -5.81106 -11.0913 1.24816 14.5476 -7.52492 2.21234 -9.75582 -15.9905 2.54778 -11.6811 -1.63297 -3.48344 0.0381927 6.52456 -3.48324 0.0382323 6.52507 -3.4677 -6.08946 -5.07353 -24.5571 10.0689 -8.57393 -51.6319 33.2056 16.4537 14.8806 3.01776 -29.2154 -4.06054 -0.277722 -1.46793 -7.95139e-016 0 -1.59028e-015 -3.97569e-016 0 -0 2.64954 8.29683 24.338 13.7524 -13.8043 51.8895 -48.4025 16.9961 42.8997 -26.3107 12.9284 -9.33839 -7.95139e-016 0 -1.59028e-015 -2.38542e-015 0 -3.97569e-016 -1.76191 -1.79675 -5.39685 
12.5148 94.733 -10.156 -3.09826 6.03204 27.9124 -1.90827 0.0680522 3.16087 -0.794151 -21.8364 -0.817413 1.60265 19.9276 -13.4019 1.59348 -4.03574 -7.03628 0.64846 -10.3142 -0.942105 -8.82953 -4.32186 -12.1092 1.11559 12.7627 -8.81513 2.72127 -9.11855 -15.7158 2.05607 -11.7298 -1.16196 -3.58586 0.0374267 6.31647 -3.58587 0.0374295 6.31648 -2.40952 -4.8547 -5.83447 -25.1579 8.54173 -8.55463 -52.9632 31.179 17.8631 15.2815 3.12096 -29.246 -3.76146 -0.166814 -0.824169 -7.95139e-016 6.36111e-015 -0 -1.59028e-015 4.77083e-015 -1.59028e-015 1.53415 6.7719 22.8569 16.4014 -14.7575 54.3515 -47.385 18.3418 43.9547 -25.3147 11.483 -11.464 1.59028e-015 -3.18055e-015 3.97569e-015 6.17947e-031 -6.36111e-015 5.56597e-015 -2.55747 -1.77969 -5.75364 
12.7088 94.8342 -9.98134 -2.30416 5.7108 28.4133 -1.82861 0.160185 3.09957 -0.98186 -20.5325 -1.95921 0.0221623 18.7194 -12.0927 2.17114 -3.36991 -7.11545 0.596179 -10.3054 -1.05758 -9.40186 -3.16594 -13.0752 0.84528 12.2676 -9.62773 3.37474 -8.97965 -14.5801 1.70454 -11.7653 -0.804624 -3.69318 0.223483 6.13854 -3.69289 0.223481 6.13858 -1.73105 -3.91113 -6.29904 -25.4481 7.22383 -8.01908 -54.0073 30.3342 18.7641 15.0113 3.29686 -28.5257 -3.32676 -0.0617555 -0.214186 -2.98177e-015 1.59028e-015 -0 -2.38542e-015 3.18056e-015 -0 0.166698 5.45744 22.3016 18.2803 -14.8482 55.8238 -47.7681 18.6335 45.7287 -22.3487 9.89202 -11.2675 3.18055e-015 0 6.36111e-015 3.18055e-015 0 7.15625e-015 -2.63282 -1.60669 -6.04059 
12.9583 94.8753 -9.89573 -1.582 5.13252 27.9753 -1.74928 0.211662 2.98067 -1.09606 -19.2591 -0.886834 -0.245233 18.1371 -12.5137 2.47402 -3.18312 -7.05616 0.590915 -10.3197 -1.0983 -10.1514 -2.17306 -12.6959 1.43387 11.9827 -9.60565 3.27322 -8.90749 -14.5131 1.57609 -11.7785 -0.67119 -3.61695 0.332768 5.88889 -3.61696 0.332769 5.8889 -1.79767 -3.22632 -6.41311 -25.4215 6.22011 -7.12263 -55.1419 30.6726 19.9052 14.5881 3.18399 -27.4853 -3.41283 -0.0921071 -0.0124748 -1.98785e-016 -1.59028e-015 -7.95139e-016 -4.96962e-016 -1.59028e-015 -7.95139e-016 0.727582 4.93996 22.7215 17.4173 -13.4026 54.1664 -48.6912 15.2437 49.2588 -22.4374 9.72917 -11.3575 3.18055e-015 3.18055e-015 -1.59028e-015 3.18055e-015 6.36111e-015 -1.59028e-015 -2.32878 -1.02158 -6.2356 
13.0497 94.8487 -9.97271 -1.36781 4.87442 27.227 -1.65933 0.151318 2.88491 -1.0492 -18.9251 -0.670205 -0.431942 18.3449 -11.9495 2.59007 -3.32786 -6.89104 0.578515 -10.3361 -1.12607 -9.84142 -2.33562 -13.8402 -0.182915 12.3817 -7.20797 3.88453 -8.93006 -14.5365 1.60507 -11.7602 -0.818634 -3.41489 0.219848 5.69972 -3.4149 0.219855 5.69974 -2.30135 -2.78614 -6.59425 -25.0697 5.57533 -6.40241 -56.0388 31.8082 20.474 14.0112 3.63161 -25.6895 -4.58905 -0.244408 -0.0984338 -3.97569e-016 0 3.97569e-016 1.98785e-016 0 3.97569e-016 2.82056 5.07918 23.2894 17.6853 -13.4328 52.7895 -50.9475 13.9134 55.7775 -25.1277 9.66414 -10.4542 5.56597e-015 0 -1.19271e-015 6.36111e-015 3.18056e-015 -1.98785e-015 -1.77751 -0.744144 -6.67354 
13.1641 94.8498 -10.0582 -1.103 4.47912 25.8903 -1.55118 0.129102 2.87665 -1.00113 -18.3834 -0.601724 -0.502484 18.4438 -10.6303 2.53367 -3.55348 -6.9062 0.57871 -10.3332 -1.11616 -10.0436 -2.31331 -13.6597 -0.478617 12.4496 -6.42102 4.12413 -8.75368 -14.1167 1.47725 -11.7491 -0.755648 -3.21365 0.180408 5.68331 -3.21365 0.180409 5.6829 -2.5397 -2.86441 -7.12567 -24.5625 5.40679 -5.77894 -57.506 32.6559 20.6984 13.82 4.49833 -23.8403 -6.33658 -0.439111 0.207511 -1.11816e-016 -3.18055e-015 4.96962e-017 8.69683e-017 0 9.93923e-017 5.08407 5.79002 23.0824 20.4692 -13.7592 50.603 -54.9702 11.2972 66.8853 -23.3215 8.8285 -9.09866 -3.97569e-016 6.36111e-015 7.95139e-016 -3.97569e-016 6.36111e-015 1.98785e-016 -1.57266 -0.347251 -7.28784 
13.2621 94.8877 -10.0652 -0.632289 3.76657 24.0935 -1.43436 0.191389 2.80371 -0.801123 -17.3442 -0.455596 -0.817476 18.2702 -9.5884 2.53789 -3.72102 -6.21808 0.596374 -10.308 -1.01368 -10.4242 -1.99871 -13.0709 -0.424465 12.3271 -5.84093 4.21717 -8.47808 -13.3985 1.30044 -11.7329 -0.67714 -2.95135 0.312489 5.5592 -2.95135 0.312489 5.55922 -2.99286 -3.51169 -7.62644 -24.2259 5.83867 -5.02397 -58.7711 32.7466 20.7342 13.7417 5.58995 -22.5401 -7.78945 -0.557808 0.74857 -9.93923e-017 0 1.98785e-016 -9.93923e-017 0 1.98785e-016 7.93315 7.29834 23.1533 23.2498 -13.9248 47.1576 -53.424 8.22783 78.9404 -19.799 8.12903 -7.09953 2.78298e-015 -6.36111e-015 -1.98785e-015 3.97569e-015 -6.36111e-015 -3.97569e-015 -1.47489 0.74617 -7.8627 
13.2605 94.9163 -10.0711 -0.287711 3.04568 22.1155 -1.33019 0.22811 2.58306 -0.48518 -16.4225 0.287078 -0.862198 18.2763 -9.48519 2.47382 -3.95771 -4.93823 0.618997 -10.2938 -0.881712 -10.6851 -1.8496 -12.4481 -0.395024 12.2577 -5.23783 4.36474 -8.19989 -12.3986 1.01663 -11.6959 -0.59939 -2.6332 0.397121 5.15395 -2.63321 0.397006 5.15397 -3.23709 -3.44456 -7.72617 -24.3095 5.60837 -4.43345 -59.476 33.1928 20.3747 13.1292 6.62349 -21.1685 -8.27804 -0.574925 0.665305 2.98177e-016 -3.18055e-015 -0 2.98177e-016 0 -0 10.9927 8.26509 23.6986 23.5814 -10.4508 41.8796 -49.3759 5.51354 87.0396 -15.2759 6.92054 -4.99395 -4.37326e-015 3.18055e-015 -0 -3.97569e-015 3.18056e-015 -0 -1.35613 0.731524 -8.05589 
13.2688 94.9187 -10.0767 0.259662 2.249 20.089 -1.26549 0.357679 2.32318 -0.585085 -15.3627 0.812275 -0.452166 18.1322 -9.08713 2.12064 -4.20612 -3.86923 0.650239 -10.2524 -0.68552 -11.1493 -1.90791 -12.1829 -0.489324 12.6831 -3.87135 4.50908 -8.20195 -11.6137 0.73307 -11.6485 -0.586047 -2.4167 0.665965 4.66328 -2.4167 0.665967 4.66329 -3.92629 -3.9036 -7.52779 -24.3269 6.16013 -4.27707 -59.6511 33.8673 19.5933 12.2357 6.4247 -20.0436 -8.18932 -0.629943 0.528085 5.96354e-016 9.54166e-015 3.97569e-016 3.97569e-016 6.36111e-015 7.95139e-016 15.2062 9.88089 23.2528 22.8984 -3.98735 35.4557 -45.6509 3.1885 91.7374 -8.65322 5.19053 -2.5454 -2.38542e-015 -3.18055e-015 -0 -2.38542e-015 -6.36111e-015 -1.59028e-015 -0.588758 1.04265 -8.18889 
13.0437 94.9365 -10.1873 0.373457 1.64097 18.1459 -1.1354 0.418885 2.06992 -0.217257 -14.7972 0.913298 -0.498644 18.1958 -8.30072 1.80961 -4.44906 -2.79119 0.691209 -10.1824 -0.43504 -11.1925 -2.31396 -11.2116 -0.48046 12.9972 -3.33187 4.53713 -8.00714 -10.9924 0.467607 -11.6305 -0.458323 -2.19619 0.798169 4.15759 -2.19619 0.798381 4.15759 -3.87021 -4.15205 -7.35859 -24.7952 6.57702 -4.68208 -59.9063 35.091 18.7506 11.595 5.54775 -19.0948 -7.85286 -0.661801 0.458569 -9.93923e-017 6.36111e-015 -0 -9.93923e-017 6.36111e-015 1.98785e-016 19.2735 11.1932 22.1912 23.6469 3.65103 27.9647 -40.4266 2.95946 93.6495 -1.99987 5.14529 -3.48317 -3.97569e-016 -1.59028e-015 -0 1.59028e-015 -3.18056e-015 -0 -0.386988 0.926973 -8.0558 
12.8647 94.9479 -10.1797 0.468597 0.930587 16.4236 -1.02736 0.545701 1.74568 0.100964 -14.1521 1.3226 -0.304774 18.3312 -7.80266 1.44506 -4.7936 -1.93894 0.730521 -10.1255 -0.187047 -11.2178 -2.46453 -10.645 -0.469518 13.176 -2.97052 4.74191 -7.81956 -9.95706 0.171369 -11.6152 -0.267773 -2.04544 1.06006 3.50702 -2.04241 1.06042 3.50734 -3.64555 -4.3245 -6.97113 -24.831 7.02257 -5.44623 -60.0349 36.5281 17.4757 11.5723 5.32843 -18.6169 -7.02528 -0.584773 0.231356 -9.00743e-017 6.36111e-015 -3.10601e-017 -1.77043e-016 9.54167e-015 -4.34841e-017 23.5168 12.4406 21.3049 26.7027 10.2254 18.8475 -32.9602 4.8993 91.5995 1.05704 5.91636 -6.23892 7.95139e-016 6.36111e-015 -9.54166e-015 7.94503e-031 4.77083e-015 -9.54166e-015 -0.412678 0.676067 -7.6028 
12.6038 94.9662 -10.0532 0.526344 0.0675134 14.8153 -0.917039 0.712989 1.41525 0.661762 -13.3227 1.87493 -0.407672 18.4514 -7.49251 1.21301 -5.18351 -1.04869 0.753709 -10.0488 0.0357781 -11.0147 -2.40956 -9.88565 -0.572089 13.3148 -2.57504 4.8634 -7.77797 -9.21747 -0.0831997 -11.6011 -0.100838 -1.8582 1.40284 2.84599 -1.8582 1.40284 2.84599 -3.67271 -4.64513 -6.36477 -24.8529 7.75082 -6.39737 -60.3143 38.7161 17.0491 12.5082 3.81817 -19.5055 -6.60909 -0.590562 0.664494 -1.98785e-016 6.36111e-015 -5.96354e-016 -5.96354e-016 0 -1.98785e-016 27.2436 13.3835 20.0399 31.5398 14.7451 10.9446 -26.2245 6.40571 84.5964 4.92794 2.70301 -10.2563 -6.36111e-015 6.36111e-015 6.36111e-015 -6.36111e-015 6.36111e-015 6.36111e-015 -0.199999 0.632491 -7.05499 
12.351 95.0083 -9.95449 0.654432 -0.524997 13.4044 -0.847496 0.849201 1.11946 0.984319 -12.5159 1.48439 -0.750785 18.137 -6.43265 0.986635 -5.32911 -0.104221 0.750223 -9.95585 0.17717 -10.9799 -2.5314 -9.15879 -0.579283 13.5366 -2.28214 4.8653 -7.75768 -8.62751 -0.253736 -11.5969 0.0587032 -1.74632 1.68122 2.25394 -1.74636 1.68125 2.25394 -3.49697 -4.86568 -5.82103 -25.1015 8.34098 -7.31853 -58.7213 40.1717 15.3103 12.7916 4.05105 -20.5039 -5.09347 -0.388602 0.065618 7.95139e-016 6.36111e-015 -7.95139e-016 8.82782e-032 6.36111e-015 -7.95139e-016 29.766 13.9957 19.2708 36.7536 21.8146 4.50691 -15.2888 0.417308 72.0681 7.37257 0.316641 -14.9826 2.20695e-031 3.18055e-015 -3.97569e-015 3.18055e-015 6.36111e-015 -0 -0.285827 0.427626 -6.45796 
